<svg xmlns="http://www.w3.org/2000/svg" xmlns:xlink="http://www.w3.org/1999/xlink" contentStyleType="text/css" height="648px" preserveAspectRatio="none" style="width:966px;height:648px;background:#FFFFFF;" version="1.1" viewBox="0 0 966 648" width="966px" zoomAndPan="magnify"><defs/><g><line style="stroke:#181818;stroke-width:0.5;stroke-dasharray:5.0,5.0;" x1="23" x2="23" y1="81.2969" y2="567.4219"/><line style="stroke:#181818;stroke-width:0.5;stroke-dasharray:5.0,5.0;" x1="123.3279" x2="123.3279" y1="81.2969" y2="567.4219"/><line style="stroke:#181818;stroke-width:0.5;stroke-dasharray:5.0,5.0;" x1="290.0443" x2="290.0443" y1="81.2969" y2="567.4219"/><line style="stroke:#181818;stroke-width:0.5;stroke-dasharray:5.0,5.0;" x1="472.4993" x2="472.4993" y1="81.2969" y2="567.4219"/><line style="stroke:#181818;stroke-width:0.5;stroke-dasharray:5.0,5.0;" x1="632.4677" x2="632.4677" y1="81.2969" y2="567.4219"/><line style="stroke:#181818;stroke-width:0.5;stroke-dasharray:5.0,5.0;" x1="767.9141" x2="767.9141" y1="81.2969" y2="567.4219"/><line style="stroke:#181818;stroke-width:0.5;stroke-dasharray:5.0,5.0;" x1="901.6858" x2="901.6858" y1="81.2969" y2="567.4219"/><text fill="#000000" font-family="sans-serif" font-size="14" lengthAdjust="spacing" textLength="31.9102" x="5" y="77.9951">User</text><ellipse cx="23.9551" cy="13.5" fill="#E2E2F0" rx="8" ry="8" style="stroke:#181818;stroke-width:0.5;"/><path d="M23.9551,21.5 L23.9551,48.5 M10.9551,29.5 L36.9551,29.5 M23.9551,48.5 L10.9551,63.5 M23.9551,48.5 L36.9551,63.5 " fill="none" style="stroke:#181818;stroke-width:0.5;"/><text fill="#000000" font-family="sans-serif" font-size="14" lengthAdjust="spacing" textLength="31.9102" x="5" y="579.417">User</text><ellipse cx="23.9551" cy="591.2188" fill="#E2E2F0" rx="8" ry="8" style="stroke:#181818;stroke-width:0.5;"/><path d="M23.9551,599.2188 L23.9551,626.2188 M10.9551,607.2188 L36.9551,607.2188 M23.9551,626.2188 L10.9551,641.2188 M23.9551,626.2188 L36.9551,641.2188 " fill="none" style="stroke:#181818;stroke-width:0.5;"/><text fill="#000000" font-family="sans-serif" font-size="14" lengthAdjust="spacing" textLength="57.0391" x="92.3279" y="77.9951">Browser</text><path d="M103.3474,37 L103.3474,61 M103.3474,49 L120.3474,49 " fill="none" style="stroke:#181818;stroke-width:0.5;"/><ellipse cx="132.3474" cy="49" fill="#E2E2F0" rx="12" ry="12" style="stroke:#181818;stroke-width:0.5;"/><text fill="#000000" font-family="sans-serif" font-size="14" lengthAdjust="spacing" textLength="57.0391" x="92.3279" y="579.417">Browser</text><path d="M103.3474,586.7188 L103.3474,610.7188 M103.3474,598.7188 L120.3474,598.7188 " fill="none" style="stroke:#181818;stroke-width:0.5;"/><ellipse cx="132.3474" cy="598.7188" fill="#E2E2F0" rx="12" ry="12" style="stroke:#181818;stroke-width:0.5;"/><text fill="#000000" font-family="sans-serif" font-size="14" lengthAdjust="spacing" textLength="127.9277" x="224.0443" y="77.9951">BroadcastChannel</text><ellipse cx="291.0082" cy="49" fill="#E2E2F0" rx="12" ry="12" style="stroke:#181818;stroke-width:0.5;"/><polygon fill="#181818" points="287.0082,37,293.0082,32,291.0082,37,293.0082,42,287.0082,37" style="stroke:#181818;stroke-width:1.0;"/><text fill="#000000" font-family="sans-serif" font-size="14" lengthAdjust="spacing" textLength="127.9277" x="224.0443" y="579.417">BroadcastChannel</text><ellipse cx="291.0082" cy="598.7188" fill="#E2E2F0" rx="12" ry="12" style="stroke:#181818;stroke-width:0.5;"/><polygon fill="#181818" points="287.0082,586.7188,293.0082,581.7188,291.0082,586.7188,293.0082,591.7188,287.0082,586.7188" style="stroke:#181818;stroke-width:1.0;"/><text fill="#000000" font-family="sans-serif" font-size="14" lengthAdjust="spacing" textLength="135.4835" x="402.4993" y="77.9951">updateCounter &#54632;&#49688;</text><ellipse cx="473.2411" cy="49" fill="#E2E2F0" rx="12" ry="12" style="stroke:#181818;stroke-width:0.5;"/><polygon fill="#181818" points="469.2411,37,475.2411,32,473.2411,37,475.2411,42,469.2411,37" style="stroke:#181818;stroke-width:1.0;"/><text fill="#000000" font-family="sans-serif" font-size="14" lengthAdjust="spacing" textLength="135.4835" x="402.4993" y="579.417">updateCounter &#54632;&#49688;</text><ellipse cx="473.2411" cy="598.7188" fill="#E2E2F0" rx="12" ry="12" style="stroke:#181818;stroke-width:0.5;"/><polygon fill="#181818" points="469.2411,586.7188,475.2411,581.7188,473.2411,586.7188,475.2411,591.7188,469.2411,586.7188" style="stroke:#181818;stroke-width:1.0;"/><text fill="#000000" font-family="sans-serif" font-size="14" lengthAdjust="spacing" textLength="123.4465" x="568.4677" y="77.9951">onmessage &#54648;&#46308;&#47084;</text><ellipse cx="633.1909" cy="49" fill="#E2E2F0" rx="12" ry="12" style="stroke:#181818;stroke-width:0.5;"/><polygon fill="#181818" points="629.1909,37,635.1909,32,633.1909,37,635.1909,42,629.1909,37" style="stroke:#181818;stroke-width:1.0;"/><text fill="#000000" font-family="sans-serif" font-size="14" lengthAdjust="spacing" textLength="123.4465" x="568.4677" y="579.417">onmessage &#54648;&#46308;&#47084;</text><ellipse cx="633.1909" cy="598.7188" fill="#E2E2F0" rx="12" ry="12" style="stroke:#181818;stroke-width:0.5;"/><polygon fill="#181818" points="629.1909,586.7188,635.1909,581.7188,633.1909,586.7188,635.1909,591.7188,629.1909,586.7188" style="stroke:#181818;stroke-width:1.0;"/><text fill="#000000" font-family="sans-serif" font-size="14" lengthAdjust="spacing" textLength="114.7717" x="707.9141" y="77.9951">Increment &#54648;&#46308;&#47084;</text><ellipse cx="768.3" cy="49" fill="#E2E2F0" rx="12" ry="12" style="stroke:#181818;stroke-width:0.5;"/><polygon fill="#181818" points="764.3,37,770.3,32,768.3,37,770.3,42,764.3,37" style="stroke:#181818;stroke-width:1.0;"/><text fill="#000000" font-family="sans-serif" font-size="14" lengthAdjust="spacing" textLength="114.7717" x="707.9141" y="579.417">Increment &#54648;&#46308;&#47084;</text><ellipse cx="768.3" cy="598.7188" fill="#E2E2F0" rx="12" ry="12" style="stroke:#181818;stroke-width:0.5;"/><polygon fill="#181818" points="764.3,586.7188,770.3,581.7188,768.3,586.7188,770.3,591.7188,764.3,586.7188" style="stroke:#181818;stroke-width:1.0;"/><text fill="#000000" font-family="sans-serif" font-size="14" lengthAdjust="spacing" textLength="121.1633" x="838.6858" y="77.9951">Decrement &#54648;&#46308;&#47084;</text><ellipse cx="902.2674" cy="49" fill="#E2E2F0" rx="12" ry="12" style="stroke:#181818;stroke-width:0.5;"/><polygon fill="#181818" points="898.2674,37,904.2674,32,902.2674,37,904.2674,42,898.2674,37" style="stroke:#181818;stroke-width:1.0;"/><text fill="#000000" font-family="sans-serif" font-size="14" lengthAdjust="spacing" textLength="121.1633" x="838.6858" y="579.417">Decrement &#54648;&#46308;&#47084;</text><ellipse cx="902.2674" cy="598.7188" fill="#E2E2F0" rx="12" ry="12" style="stroke:#181818;stroke-width:0.5;"/><polygon fill="#181818" points="898.2674,586.7188,904.2674,581.7188,902.2674,586.7188,904.2674,591.7188,898.2674,586.7188" style="stroke:#181818;stroke-width:1.0;"/><polygon fill="#181818" points="111.8474,108.4297,121.8474,112.4297,111.8474,116.4297,115.8474,112.4297" style="stroke:#181818;stroke-width:1.0;"/><line style="stroke:#181818;stroke-width:1.0;" x1="23.9551" x2="117.8474" y1="112.4297" y2="112.4297"/><text fill="#000000" font-family="sans-serif" font-size="13" lengthAdjust="spacing" textLength="75.8924" x="30.9551" y="107.3638">&#48652;&#46972;&#50864;&#51200; &#50676;&#44592;</text><polygon fill="#181818" points="279.0082,137.5625,289.0082,141.5625,279.0082,145.5625,283.0082,141.5625" style="stroke:#181818;stroke-width:1.0;"/><line style="stroke:#181818;stroke-width:1.0;" x1="123.8474" x2="285.0082" y1="141.5625" y2="141.5625"/><text fill="#000000" font-family="sans-serif" font-size="13" lengthAdjust="spacing" textLength="143.1607" x="130.8474" y="136.4966">'counter_channel' &#49373;&#49457;</text><polygon fill="#181818" points="756.3,166.6953,766.3,170.6953,756.3,174.6953,760.3,170.6953" style="stroke:#181818;stroke-width:1.0;"/><line style="stroke:#181818;stroke-width:1.0;" x1="23.9551" x2="762.3" y1="170.6953" y2="170.6953"/><text fill="#000000" font-family="sans-serif" font-size="13" lengthAdjust="spacing" textLength="122.6662" x="30.9551" y="165.6294">Increment &#48260;&#53948; &#53364;&#47533;</text><polygon fill="#181818" points="134.8474,195.8281,124.8474,199.8281,134.8474,203.8281,130.8474,199.8281" style="stroke:#181818;stroke-width:1.0;"/><line style="stroke:#181818;stroke-width:1.0;" x1="128.8474" x2="767.3" y1="199.8281" y2="199.8281"/><text fill="#000000" font-family="sans-serif" font-size="13" lengthAdjust="spacing" textLength="58.4619" x="140.8474" y="194.7622">count++</text><polygon fill="#181818" points="484.2411,224.9609,474.2411,228.9609,484.2411,232.9609,480.2411,228.9609" style="stroke:#181818;stroke-width:1.0;"/><line style="stroke:#181818;stroke-width:1.0;" x1="478.2411" x2="767.3" y1="228.9609" y2="228.9609"/><text fill="#000000" font-family="sans-serif" font-size="13" lengthAdjust="spacing" textLength="135.9498" x="490.2411" y="223.895">updateCounter() &#54840;&#52636;</text><polygon fill="#181818" points="134.8474,254.0938,124.8474,258.0938,134.8474,262.0938,130.8474,258.0938" style="stroke:#181818;stroke-width:1.0;"/><line style="stroke:#181818;stroke-width:1.0;" x1="128.8474" x2="472.2411" y1="258.0938" y2="258.0938"/><text fill="#000000" font-family="sans-serif" font-size="13" lengthAdjust="spacing" textLength="80.0247" x="140.8474" y="253.0278">&#52852;&#50868;&#53552; &#44050; &#44081;&#49888;</text><polygon fill="#181818" points="302.0082,283.2266,292.0082,287.2266,302.0082,291.2266,298.0082,287.2266" style="stroke:#181818;stroke-width:1.0;"/><line style="stroke:#181818;stroke-width:1.0;" x1="296.0082" x2="472.2411" y1="287.2266" y2="287.2266"/><text fill="#000000" font-family="sans-serif" font-size="13" lengthAdjust="spacing" textLength="158.2329" x="308.0082" y="282.1606">&#47700;&#49884;&#51648; &#51204;&#49569; (&#54788;&#51116; &#52852;&#50868;&#53552; &#44050;)</text><polygon fill="#181818" points="890.2674,312.3594,900.2674,316.3594,890.2674,320.3594,894.2674,316.3594" style="stroke:#181818;stroke-width:1.0;"/><line style="stroke:#181818;stroke-width:1.0;" x1="23.9551" x2="896.2674" y1="316.3594" y2="316.3594"/><text fill="#000000" font-family="sans-serif" font-size="13" lengthAdjust="spacing" textLength="128.6013" x="30.9551" y="311.2935">Decrement &#48260;&#53948; &#53364;&#47533;</text><polygon fill="#181818" points="134.8474,341.4922,124.8474,345.4922,134.8474,349.4922,130.8474,345.4922" style="stroke:#181818;stroke-width:1.0;"/><line style="stroke:#181818;stroke-width:1.0;" x1="128.8474" x2="901.2674" y1="345.4922" y2="345.4922"/><text fill="#000000" font-family="sans-serif" font-size="13" lengthAdjust="spacing" textLength="46.0586" x="140.8474" y="340.4263">count--</text><polygon fill="#181818" points="484.2411,370.625,474.2411,374.625,484.2411,378.625,480.2411,374.625" style="stroke:#181818;stroke-width:1.0;"/><line style="stroke:#181818;stroke-width:1.0;" x1="478.2411" x2="901.2674" y1="374.625" y2="374.625"/><text fill="#000000" font-family="sans-serif" font-size="13" lengthAdjust="spacing" textLength="135.9498" x="490.2411" y="369.5591">updateCounter() &#54840;&#52636;</text><polygon fill="#181818" points="134.8474,399.7578,124.8474,403.7578,134.8474,407.7578,130.8474,403.7578" style="stroke:#181818;stroke-width:1.0;"/><line style="stroke:#181818;stroke-width:1.0;" x1="128.8474" x2="472.2411" y1="403.7578" y2="403.7578"/><text fill="#000000" font-family="sans-serif" font-size="13" lengthAdjust="spacing" textLength="80.0247" x="140.8474" y="398.6919">&#52852;&#50868;&#53552; &#44050; &#44081;&#49888;</text><polygon fill="#181818" points="302.0082,428.8906,292.0082,432.8906,302.0082,436.8906,298.0082,432.8906" style="stroke:#181818;stroke-width:1.0;"/><line style="stroke:#181818;stroke-width:1.0;" x1="296.0082" x2="472.2411" y1="432.8906" y2="432.8906"/><text fill="#000000" font-family="sans-serif" font-size="13" lengthAdjust="spacing" textLength="158.2329" x="308.0082" y="427.8247">&#47700;&#49884;&#51648; &#51204;&#49569; (&#54788;&#51116; &#52852;&#50868;&#53552; &#44050;)</text><polygon fill="#181818" points="621.1909,458.0234,631.1909,462.0234,621.1909,466.0234,625.1909,462.0234" style="stroke:#181818;stroke-width:1.0;"/><line style="stroke:#181818;stroke-width:1.0;" x1="291.0082" x2="627.1909" y1="462.0234" y2="462.0234"/><text fill="#000000" font-family="sans-serif" font-size="13" lengthAdjust="spacing" textLength="63.9324" x="298.0082" y="456.9575">&#47700;&#49884;&#51648; &#49688;&#49888;</text><polygon fill="#181818" points="134.8474,487.1563,124.8474,491.1563,134.8474,495.1563,130.8474,491.1563" style="stroke:#181818;stroke-width:1.0;"/><line style="stroke:#181818;stroke-width:1.0;" x1="128.8474" x2="632.1909" y1="491.1563" y2="491.1563"/><text fill="#000000" font-family="sans-serif" font-size="13" lengthAdjust="spacing" textLength="104.7414" x="140.8474" y="486.0903">count &#44050; &#50629;&#45936;&#51060;&#53944;</text><polygon fill="#181818" points="484.2411,516.2891,474.2411,520.2891,484.2411,524.2891,480.2411,520.2891" style="stroke:#181818;stroke-width:1.0;"/><line style="stroke:#181818;stroke-width:1.0;" x1="478.2411" x2="632.1909" y1="520.2891" y2="520.2891"/><text fill="#000000" font-family="sans-serif" font-size="13" lengthAdjust="spacing" textLength="135.9498" x="490.2411" y="515.2231">updateCounter() &#54840;&#52636;</text><polygon fill="#181818" points="134.8474,545.4219,124.8474,549.4219,134.8474,553.4219,130.8474,549.4219" style="stroke:#181818;stroke-width:1.0;"/><line style="stroke:#181818;stroke-width:1.0;" x1="128.8474" x2="472.2411" y1="549.4219" y2="549.4219"/><text fill="#000000" font-family="sans-serif" font-size="13" lengthAdjust="spacing" textLength="80.0247" x="140.8474" y="544.356">&#52852;&#50868;&#53552; &#44050; &#44081;&#49888;</text><!--SRC=[rPFDIiD058NtUOgXcxP8No0B5rP45-AgQnadWmhjH98KSUTFbD8g57zeA6sj86gXGYf18lI9EZVlu3GfQTD9juABBERSS-wzymt1nD8DL3AfWR29u788xG7qcig1NcKQDixGXg6VpghSl-NTCRHTw9yhH6UMePUdTQmHR5h58ymOBOTjHZQtcx6bA7fPr2YTQDYYMrL6h6ETJNsPQYZDwYXu-e2QaubpUsoNcYO-fDkOQULeXupEAf4ex3v_UENFmtbYXn63LYYp5XEnc9ROf2c9M5nCA34SL5XFi41gyWWjR-AxIa8JaOYAC6T9TE5z4Y7B8hZgWZrQ6Y5THfrBY7_PGNsCWWkFltqgabNUC9ovjfPgJNyW5IMU9vT7WUF3TqT9jyiZuSU3jXVOBfguz-8RGQE_EXpZuOD7Q7JWNO3ist3pWdA1OqDlcEoNNw8bFQGwbvPeITOLj0g5LEj_fHKbH5Rwhn9TQivqiEHPmIXS5bhN_Cw5hXVK_TJa7oBx1G00]--></g></svg>