<svg xmlns="http://www.w3.org/2000/svg" xmlns:xlink="http://www.w3.org/1999/xlink" contentStyleType="text/css" height="559px" preserveAspectRatio="none" style="width:831px;height:559px;background:#FFFFFF;" version="1.1" viewBox="0 0 831 559" width="831px" zoomAndPan="magnify"><defs/><g><!--class AbstractFactory--><g id="elem_AbstractFactory"><rect codeLine="3" fill="#F1F1F1" height="72.5938" id="AbstractFactory" rx="2.5" ry="2.5" style="stroke:#181818;stroke-width:0.5;" width="271.3281" x="310.94" y="213.49"/><ellipse cx="386.7574" cy="229.49" fill="#B4A7E5" rx="11" ry="11" style="stroke:#181818;stroke-width:1.0;"/><path d="M382.6793,225.2556 L382.6793,223.0994 L390.0699,223.0994 L390.0699,225.2556 L387.6011,225.2556 L387.6011,233.3338 L390.0699,233.3338 L390.0699,235.49 L382.6793,235.49 L382.6793,233.3338 L385.148,233.3338 L385.148,225.2556 L382.6793,225.2556 Z " fill="#000000"/><text fill="#000000" font-family="sans-serif" font-size="14" font-style="italic" lengthAdjust="spacing" textLength="111.1934" x="407.2574" y="234.3367">AbstractFactory</text><line style="stroke:#181818;stroke-width:0.5;" x1="311.94" x2="581.2681" y1="245.49" y2="245.49"/><text fill="#000000" font-family="sans-serif" font-size="14" lengthAdjust="spacing" textLength="259.2734" x="316.94" y="262.4851">+AbstractProductA CreateProductA()</text><text fill="#000000" font-family="sans-serif" font-size="14" lengthAdjust="spacing" textLength="259.3281" x="316.94" y="278.782">+AbstractProductB CreateProductB()</text></g><!--class AbstractProductA--><g id="elem_AbstractProductA"><rect codeLine="8" fill="#F1F1F1" height="32" id="AbstractProductA" rx="2.5" ry="2.5" style="stroke:#181818;stroke-width:0.5;" width="154.0557" x="121.57" y="233.78"/><ellipse cx="136.57" cy="249.78" fill="#B4A7E5" rx="11" ry="11" style="stroke:#181818;stroke-width:1.0;"/><path d="M132.4919,245.5456 L132.4919,243.3894 L139.8825,243.3894 L139.8825,245.5456 L137.4138,245.5456 L137.4138,253.6238 L139.8825,253.6238 L139.8825,255.78 L132.4919,255.78 L132.4919,253.6238 L134.9606,253.6238 L134.9606,245.5456 L132.4919,245.5456 Z " fill="#000000"/><text fill="#000000" font-family="sans-serif" font-size="14" font-style="italic" lengthAdjust="spacing" textLength="122.0557" x="150.57" y="254.6267">AbstractProductA</text></g><!--class AbstractProductB--><g id="elem_AbstractProductB"><rect codeLine="9" fill="#F1F1F1" height="32" id="AbstractProductB" rx="2.5" ry="2.5" style="stroke:#181818;stroke-width:0.5;" width="154.083" x="617.56" y="233.78"/><ellipse cx="632.56" cy="249.78" fill="#B4A7E5" rx="11" ry="11" style="stroke:#181818;stroke-width:1.0;"/><path d="M628.4819,245.5456 L628.4819,243.3894 L635.8725,243.3894 L635.8725,245.5456 L633.4038,245.5456 L633.4038,253.6238 L635.8725,253.6238 L635.8725,255.78 L628.4819,255.78 L628.4819,253.6238 L630.9506,253.6238 L630.9506,245.5456 L628.4819,245.5456 Z " fill="#000000"/><text fill="#000000" font-family="sans-serif" font-size="14" font-style="italic" lengthAdjust="spacing" textLength="122.083" x="646.56" y="254.6267">AbstractProductB</text></g><!--class ConcreteFactory1--><g id="elem_ConcreteFactory1"><rect codeLine="11" fill="#F1F1F1" height="96.8906" id="ConcreteFactory1" rx="2.5" ry="2.5" style="stroke:#181818;stroke-width:0.5;" width="271.3281" x="127.94" y="347.08"/><ellipse cx="196.9966" cy="363.08" fill="#ADD1B2" rx="11" ry="11" style="stroke:#181818;stroke-width:1.0;"/><path d="M199.9654,368.7206 Q199.3873,369.0175 198.7466,369.1581 Q198.106,369.3144 197.4029,369.3144 Q194.9029,369.3144 193.5748,367.6738 Q192.2623,366.0175 192.2623,362.8925 Q192.2623,359.7675 193.5748,358.1113 Q194.9029,356.455 197.4029,356.455 Q198.106,356.455 198.7466,356.6113 Q199.4029,356.7675 199.9654,357.0644 L199.9654,359.7831 Q199.3404,359.205 198.7466,358.9394 Q198.1529,358.6581 197.5279,358.6581 Q196.1841,358.6581 195.4966,359.7363 Q194.8091,360.7988 194.8091,362.8925 Q194.8091,364.9863 195.4966,366.0644 Q196.1841,367.1269 197.5279,367.1269 Q198.1529,367.1269 198.7466,366.8613 Q199.3404,366.58 199.9654,366.0019 L199.9654,368.7206 Z " fill="#000000"/><text fill="#000000" font-family="sans-serif" font-size="14" lengthAdjust="spacing" textLength="124.7148" x="217.4966" y="367.9267">ConcreteFactory1</text><line style="stroke:#181818;stroke-width:0.5;" x1="128.94" x2="398.2681" y1="379.08" y2="379.08"/><text fill="#000000" font-family="sans-serif" font-size="14" lengthAdjust="spacing" textLength="13.3506" x="133.94" y="396.0751">...</text><line style="stroke:#181818;stroke-width:0.5;" x1="128.94" x2="398.2681" y1="403.3769" y2="403.3769"/><text fill="#000000" font-family="sans-serif" font-size="14" lengthAdjust="spacing" textLength="259.2734" x="133.94" y="420.372">+AbstractProductA CreateProductA()</text><text fill="#000000" font-family="sans-serif" font-size="14" lengthAdjust="spacing" textLength="259.3281" x="133.94" y="436.6689">+AbstractProductB CreateProductB()</text></g><!--class ConcreteFactory2--><g id="elem_ConcreteFactory2"><rect codeLine="17" fill="#F1F1F1" height="96.8906" id="ConcreteFactory2" rx="2.5" ry="2.5" style="stroke:#181818;stroke-width:0.5;" width="271.3281" x="433.94" y="347.08"/><ellipse cx="502.9966" cy="363.08" fill="#ADD1B2" rx="11" ry="11" style="stroke:#181818;stroke-width:1.0;"/><path d="M505.9654,368.7206 Q505.3873,369.0175 504.7466,369.1581 Q504.106,369.3144 503.4029,369.3144 Q500.9029,369.3144 499.5748,367.6738 Q498.2623,366.0175 498.2623,362.8925 Q498.2623,359.7675 499.5748,358.1113 Q500.9029,356.455 503.4029,356.455 Q504.106,356.455 504.7466,356.6113 Q505.4029,356.7675 505.9654,357.0644 L505.9654,359.7831 Q505.3404,359.205 504.7466,358.9394 Q504.1529,358.6581 503.5279,358.6581 Q502.1841,358.6581 501.4966,359.7363 Q500.8091,360.7988 500.8091,362.8925 Q500.8091,364.9863 501.4966,366.0644 Q502.1841,367.1269 503.5279,367.1269 Q504.1529,367.1269 504.7466,366.8613 Q505.3404,366.58 505.9654,366.0019 L505.9654,368.7206 Z " fill="#000000"/><text fill="#000000" font-family="sans-serif" font-size="14" lengthAdjust="spacing" textLength="124.7148" x="523.4966" y="367.9267">ConcreteFactory2</text><line style="stroke:#181818;stroke-width:0.5;" x1="434.94" x2="704.2681" y1="379.08" y2="379.08"/><text fill="#000000" font-family="sans-serif" font-size="14" lengthAdjust="spacing" textLength="13.3506" x="439.94" y="396.0751">...</text><line style="stroke:#181818;stroke-width:0.5;" x1="434.94" x2="704.2681" y1="403.3769" y2="403.3769"/><text fill="#000000" font-family="sans-serif" font-size="14" lengthAdjust="spacing" textLength="259.2734" x="439.94" y="420.372">+AbstractProductA CreateProductA()</text><text fill="#000000" font-family="sans-serif" font-size="14" lengthAdjust="spacing" textLength="259.3281" x="439.94" y="436.6689">+AbstractProductB CreateProductB()</text></g><!--class Client--><g id="elem_Client"><rect codeLine="23" fill="#F1F1F1" height="129.4844" id="Client" rx="2.5" ry="2.5" style="stroke:#181818;stroke-width:0.5;" width="207.6104" x="342.8" y="7"/><ellipse cx="422.09" cy="23" fill="#ADD1B2" rx="11" ry="11" style="stroke:#181818;stroke-width:1.0;"/><path d="M425.0588,28.6406 Q424.4807,28.9375 423.84,29.0781 Q423.1994,29.2344 422.4963,29.2344 Q419.9963,29.2344 418.6682,27.5938 Q417.3557,25.9375 417.3557,22.8125 Q417.3557,19.6875 418.6682,18.0313 Q419.9963,16.375 422.4963,16.375 Q423.1994,16.375 423.84,16.5313 Q424.4963,16.6875 425.0588,16.9844 L425.0588,19.7031 Q424.4338,19.125 423.84,18.8594 Q423.2463,18.5781 422.6213,18.5781 Q421.2775,18.5781 420.59,19.6563 Q419.9025,20.7188 419.9025,22.8125 Q419.9025,24.9063 420.59,25.9844 Q421.2775,27.0469 422.6213,27.0469 Q423.2463,27.0469 423.84,26.7813 Q424.4338,26.5 425.0588,25.9219 L425.0588,28.6406 Z " fill="#000000"/><text fill="#000000" font-family="sans-serif" font-size="14" lengthAdjust="spacing" textLength="40.5303" x="442.59" y="27.8467">Client</text><line style="stroke:#181818;stroke-width:0.5;" x1="343.8" x2="549.4104" y1="39" y2="39"/><text fill="#000000" font-family="sans-serif" font-size="14" lengthAdjust="spacing" textLength="170.2627" x="348.8" y="55.9951">-factory:AbstractFactory</text><text fill="#000000" font-family="sans-serif" font-size="14" lengthAdjust="spacing" textLength="195.5557" x="348.8" y="72.292">-productA:AbstractProductA</text><text fill="#000000" font-family="sans-serif" font-size="14" lengthAdjust="spacing" textLength="195.6104" x="348.8" y="88.5889">-productB:AbstractProductB</text><text fill="#000000" font-family="sans-serif" font-size="14" lengthAdjust="spacing" textLength="13.3506" x="348.8" y="104.8857">...</text><line style="stroke:#181818;stroke-width:0.5;" x1="343.8" x2="549.4104" y1="112.1875" y2="112.1875"/><text fill="#000000" font-family="sans-serif" font-size="14" lengthAdjust="spacing" textLength="184.0234" x="348.8" y="129.1826">+Client(f:AbstractFactory)</text></g><!--class ProductA1--><g id="elem_ProductA1"><rect fill="#F1F1F1" height="32" id="ProductA1" rx="2.5" ry="2.5" style="stroke:#181818;stroke-width:0.5;" width="104.1943" x="50.5" y="520.97"/><ellipse cx="65.5" cy="536.97" fill="#ADD1B2" rx="11" ry="11" style="stroke:#181818;stroke-width:1.0;"/><path d="M68.4688,542.6106 Q67.8906,542.9075 67.25,543.0481 Q66.6094,543.2044 65.9063,543.2044 Q63.4063,543.2044 62.0781,541.5638 Q60.7656,539.9075 60.7656,536.7825 Q60.7656,533.6575 62.0781,532.0013 Q63.4063,530.345 65.9063,530.345 Q66.6094,530.345 67.25,530.5013 Q67.9063,530.6575 68.4688,530.9544 L68.4688,533.6731 Q67.8438,533.095 67.25,532.8294 Q66.6563,532.5481 66.0313,532.5481 Q64.6875,532.5481 64,533.6263 Q63.3125,534.6888 63.3125,536.7825 Q63.3125,538.8763 64,539.9544 Q64.6875,541.0169 66.0313,541.0169 Q66.6563,541.0169 67.25,540.7513 Q67.8438,540.47 68.4688,539.8919 L68.4688,542.6106 Z " fill="#000000"/><text fill="#000000" font-family="sans-serif" font-size="14" lengthAdjust="spacing" textLength="72.1943" x="79.5" y="541.8167">ProductA1</text></g><!--class ProductA2--><g id="elem_ProductA2"><rect fill="#F1F1F1" height="32" id="ProductA2" rx="2.5" ry="2.5" style="stroke:#181818;stroke-width:0.5;" width="104.1943" x="315.5" y="520.97"/><ellipse cx="330.5" cy="536.97" fill="#ADD1B2" rx="11" ry="11" style="stroke:#181818;stroke-width:1.0;"/><path d="M333.4688,542.6106 Q332.8906,542.9075 332.25,543.0481 Q331.6094,543.2044 330.9063,543.2044 Q328.4063,543.2044 327.0781,541.5638 Q325.7656,539.9075 325.7656,536.7825 Q325.7656,533.6575 327.0781,532.0013 Q328.4063,530.345 330.9063,530.345 Q331.6094,530.345 332.25,530.5013 Q332.9063,530.6575 333.4688,530.9544 L333.4688,533.6731 Q332.8438,533.095 332.25,532.8294 Q331.6563,532.5481 331.0313,532.5481 Q329.6875,532.5481 329,533.6263 Q328.3125,534.6888 328.3125,536.7825 Q328.3125,538.8763 329,539.9544 Q329.6875,541.0169 331.0313,541.0169 Q331.6563,541.0169 332.25,540.7513 Q332.8438,540.47 333.4688,539.8919 L333.4688,542.6106 Z " fill="#000000"/><text fill="#000000" font-family="sans-serif" font-size="14" lengthAdjust="spacing" textLength="72.1943" x="344.5" y="541.8167">ProductA2</text></g><!--class ProductB1--><g id="elem_ProductB1"><rect fill="#F1F1F1" height="32" id="ProductB1" rx="2.5" ry="2.5" style="stroke:#181818;stroke-width:0.5;" width="104.2217" x="493.49" y="520.97"/><ellipse cx="508.49" cy="536.97" fill="#ADD1B2" rx="11" ry="11" style="stroke:#181818;stroke-width:1.0;"/><path d="M511.4587,542.6106 Q510.8806,542.9075 510.24,543.0481 Q509.5994,543.2044 508.8962,543.2044 Q506.3962,543.2044 505.0681,541.5638 Q503.7556,539.9075 503.7556,536.7825 Q503.7556,533.6575 505.0681,532.0013 Q506.3962,530.345 508.8962,530.345 Q509.5994,530.345 510.24,530.5013 Q510.8962,530.6575 511.4587,530.9544 L511.4587,533.6731 Q510.8337,533.095 510.24,532.8294 Q509.6462,532.5481 509.0212,532.5481 Q507.6775,532.5481 506.99,533.6263 Q506.3025,534.6888 506.3025,536.7825 Q506.3025,538.8763 506.99,539.9544 Q507.6775,541.0169 509.0212,541.0169 Q509.6462,541.0169 510.24,540.7513 Q510.8337,540.47 511.4587,539.8919 L511.4587,542.6106 Z " fill="#000000"/><text fill="#000000" font-family="sans-serif" font-size="14" lengthAdjust="spacing" textLength="72.2217" x="522.49" y="541.8167">ProductB1</text></g><!--class ProductB2--><g id="elem_ProductB2"><rect fill="#F1F1F1" height="32" id="ProductB2" rx="2.5" ry="2.5" style="stroke:#181818;stroke-width:0.5;" width="104.2217" x="651.49" y="520.97"/><ellipse cx="666.49" cy="536.97" fill="#ADD1B2" rx="11" ry="11" style="stroke:#181818;stroke-width:1.0;"/><path d="M669.4588,542.6106 Q668.8806,542.9075 668.24,543.0481 Q667.5994,543.2044 666.8963,543.2044 Q664.3963,543.2044 663.0681,541.5638 Q661.7556,539.9075 661.7556,536.7825 Q661.7556,533.6575 663.0681,532.0013 Q664.3963,530.345 666.8963,530.345 Q667.5994,530.345 668.24,530.5013 Q668.8963,530.6575 669.4588,530.9544 L669.4588,533.6731 Q668.8338,533.095 668.24,532.8294 Q667.6463,532.5481 667.0213,532.5481 Q665.6775,532.5481 664.99,533.6263 Q664.3025,534.6888 664.3025,536.7825 Q664.3025,538.8763 664.99,539.9544 Q665.6775,541.0169 667.0213,541.0169 Q667.6463,541.0169 668.24,540.7513 Q668.8338,540.47 669.4588,539.8919 L669.4588,542.6106 Z " fill="#000000"/><text fill="#000000" font-family="sans-serif" font-size="14" lengthAdjust="spacing" textLength="72.2217" x="680.49" y="541.8167">ProductB2</text></g><!--link Client to AbstractFactory--><g id="link_Client_AbstractFactory"><path codeLine="32" d="M446.6,136.8 C446.6,162.55 446.6,185.27 446.6,207.18 " fill="none" id="Client-to-AbstractFactory" style="stroke:#181818;stroke-width:1.0;"/><polygon fill="#181818" points="446.6,213.18,450.6,204.18,446.6,208.18,442.6,204.18,446.6,213.18" style="stroke:#181818;stroke-width:1.0;"/><text fill="#000000" font-family="sans-serif" font-size="13" lengthAdjust="spacing" textLength="58.8301" x="447.6" y="179.5569">&#171;import&#187;</text></g><!--link Client to AbstractProductA--><g id="link_Client_AbstractProductA"><path codeLine="33" d="M356.37,136.8 C307.34,171.6 255.5833,208.3379 225.2833,229.8379 " fill="none" id="Client-to-AbstractProductA" style="stroke:#181818;stroke-width:1.0;"/><polygon fill="#181818" points="220.39,233.31,230.0447,231.364,224.4677,230.4166,225.4152,224.8396,220.39,233.31" style="stroke:#181818;stroke-width:1.0;"/><text fill="#000000" font-family="sans-serif" font-size="13" lengthAdjust="spacing" textLength="58.8301" x="309.6" y="179.5569">&#171;import&#187;</text></g><!--link Client to AbstractProductB--><g id="link_Client_AbstractProductB"><path codeLine="34" d="M536.84,136.8 C585.86,171.6 637.6167,208.3379 667.9167,229.8379 " fill="none" id="Client-to-AbstractProductB" style="stroke:#181818;stroke-width:1.0;"/><polygon fill="#181818" points="672.81,233.31,667.7848,224.8396,668.7323,230.4166,663.1553,231.364,672.81,233.31" style="stroke:#181818;stroke-width:1.0;"/><text fill="#000000" font-family="sans-serif" font-size="13" lengthAdjust="spacing" textLength="58.8301" x="601.6" y="179.5569">&#171;import&#187;</text></g><!--link AbstractProductA to AbstractProductB--><!--link AbstractProductA to ConcreteFactory1--><!--link AbstractProductB to ConcreteFactory2--><!--reverse link AbstractFactory to ConcreteFactory1--><g id="link_AbstractFactory_ConcreteFactory1"><path codeLine="40" d="M387.2154,297.4297 C364.0354,315.6397 349.63,326.95 324.54,346.66 " fill="none" id="AbstractFactory-backto-ConcreteFactory1" style="stroke:#181818;stroke-width:1.0;stroke-dasharray:7.0,7.0;"/><polygon fill="none" points="401.37,286.31,383.5089,292.7115,390.922,302.1479,401.37,286.31" style="stroke:#181818;stroke-width:1.0;"/></g><!--reverse link AbstractFactory to ConcreteFactory2--><g id="link_AbstractFactory_ConcreteFactory2"><path codeLine="41" d="M488.7119,299.9872 C504.2919,318.1972 511.78,326.95 528.64,346.66 " fill="none" id="AbstractFactory-backto-ConcreteFactory2" style="stroke:#181818;stroke-width:1.0;stroke-dasharray:7.0,7.0;"/><polygon fill="none" points="477.01,286.31,484.1528,303.8878,493.2709,296.0866,477.01,286.31" style="stroke:#181818;stroke-width:1.0;"/></g><!--link ConcreteFactory1 to ConcreteFactory2--><!--reverse link AbstractProductA to ProductA1--><g id="link_AbstractProductA_ProductA1"><path codeLine="44" d="M104.4271,271.6799 C76.6371,281.2299 65.1,290.9 48.6,316.08 C6,381.09 15.63,420.58 48.6,490.97 C54.3,503.13 65.07,513.14 75.5,520.62 " fill="none" id="AbstractProductA-backto-ProductA1" style="stroke:#181818;stroke-width:1.0;stroke-dasharray:7.0,7.0;"/><polygon fill="none" points="121.45,265.83,102.4771,266.0056,106.3771,277.3542,121.45,265.83" style="stroke:#181818;stroke-width:1.0;"/></g><!--reverse link AbstractProductA to ProductA2--><g id="link_AbstractProductA_ProductA2"><path codeLine="45" d="M163.3648,277.207 C141.8548,294.197 123.96,312.66 110.6,347.08 C95.02,387.22 96.51,403.28 110.6,443.97 C119.3,469.09 124.98,477.01 147.6,490.97 C198.86,522.6 268.38,532.44 315.45,535.27 " fill="none" id="AbstractProductA-backto-ProductA2" style="stroke:#181818;stroke-width:1.0;stroke-dasharray:7.0,7.0;"/><polygon fill="none" points="177.49,266.05,159.6458,272.4986,167.0838,281.9154,177.49,266.05" style="stroke:#181818;stroke-width:1.0;"/></g><!--reverse link AbstractProductB to ProductB1--><g id="link_AbstractProductB_ProductB1"><path codeLine="47" d="M714.0146,281.6078 C739.3646,322.9778 791,422.27 736.6,490.97 C727.9,501.95 651.52,517.4 598.03,527.04 " fill="none" id="AbstractProductB-backto-ProductB1" style="stroke:#181818;stroke-width:1.0;stroke-dasharray:7.0,7.0;"/><polygon fill="none" points="704.61,266.26,708.8986,284.7426,719.1305,278.4729,704.61,266.26" style="stroke:#181818;stroke-width:1.0;"/></g><!--reverse link AbstractProductB to ProductB2--><g id="link_AbstractProductB_ProductB2"><path codeLine="48" d="M745.6386,274.7222 C765.6586,285.5322 773.11,293.55 784.6,316.08 C819.91,385.32 824.02,423.98 784.6,490.97 C776.85,504.14 763.7,513.73 750.22,520.59 " fill="none" id="AbstractProductB-backto-ProductB2" style="stroke:#181818;stroke-width:1.0;stroke-dasharray:7.0,7.0;"/><polygon fill="none" points="729.8,266.17,742.7878,280.0017,748.4893,269.4427,729.8,266.17" style="stroke:#181818;stroke-width:1.0;"/></g><!--link ConcreteFactory1 to ProductA1--><g id="link_ConcreteFactory1_ProductA1"><path codeLine="50" d="M208.64,444.12 C177.85,470.79 146.0352,498.3516 124.8852,516.6716 " fill="none" id="ConcreteFactory1-to-ProductA1" style="stroke:#181818;stroke-width:1.0;stroke-dasharray:7.0,7.0;"/><polygon fill="#181818" points="120.35,520.6,129.7717,517.7309,124.1293,517.3264,124.5339,511.684,120.35,520.6" style="stroke:#181818;stroke-width:1.0;"/><text fill="#000000" font-family="sans-serif" font-size="13" lengthAdjust="spacing" textLength="77.3652" x="174.6" y="487.0369">&#171;instatiate&#187;</text></g><!--link ConcreteFactory1 to ProductB1--><g id="link_ConcreteFactory1_ProductB1"><path codeLine="51" d="M295.6,444.12 C309.39,461.27 326.9,479.26 346.6,490.97 C371.04,505.49 437.1324,518.4988 487.4624,526.9288 " fill="none" id="ConcreteFactory1-to-ProductB1" style="stroke:#181818;stroke-width:1.0;stroke-dasharray:7.0,7.0;"/><polygon fill="#181818" points="493.38,527.92,485.1644,522.4882,488.4487,527.094,483.8429,530.3783,493.38,527.92" style="stroke:#181818;stroke-width:1.0;"/><text fill="#000000" font-family="sans-serif" font-size="13" lengthAdjust="spacing" textLength="77.3652" x="347.6" y="487.0369">&#171;instatiate&#187;</text></g><!--link ConcreteFactory2 to ProductA2--><g id="link_ConcreteFactory2_ProductA2"><path codeLine="53" d="M500.37,444.32 C461.76,470.97 421.2074,498.9609 394.7474,517.2309 " fill="none" id="ConcreteFactory2-to-ProductA2" style="stroke:#181818;stroke-width:1.0;stroke-dasharray:7.0,7.0;"/><polygon fill="#181818" points="389.81,520.64,399.4888,518.8179,393.9245,517.799,394.9433,512.2347,389.81,520.64" style="stroke:#181818;stroke-width:1.0;"/><text fill="#000000" font-family="sans-serif" font-size="13" lengthAdjust="spacing" textLength="77.3652" x="457.6" y="487.0369">&#171;instatiate&#187;</text></g><!--link ConcreteFactory2 to ProductB2--><g id="link_ConcreteFactory2_ProductB2"><path codeLine="54" d="M615.34,444.12 C640.97,470.79 667.062,497.9544 684.672,516.2744 " fill="none" id="ConcreteFactory2-to-ProductB2" style="stroke:#181818;stroke-width:1.0;stroke-dasharray:7.0,7.0;"/><polygon fill="#181818" points="688.83,520.6,685.4768,511.3396,685.365,516.9953,679.7093,516.8835,688.83,520.6" style="stroke:#181818;stroke-width:1.0;"/><text fill="#000000" font-family="sans-serif" font-size="13" lengthAdjust="spacing" textLength="77.3652" x="661.6" y="487.0369">&#171;instatiate&#187;</text></g><!--SRC=[jLJBQiCm4BphAtHCAHQDZoOOea2XjqAFfGVPNZUYiMpaDQMlVw_gH0doocaBxS5WQsTdHhEB-oTjEcLLmykTwlirejN5W71JjkPElmA_OamR15kh4lYwwD6g4g_TqzeN_iOk_T6jRQkXn3NVM508_dDnGI0oX4W7-OY9U8hvacHiTCqthIaj81nyBPqn8SJVcOkgfF-aijDWq74dzLudcwJEakx0d96eV4bc9AhHwfvyKKyvHtrsa4wgzjaa-NJQ6L-jTDEr5lDy3kgD_08h0omZOIRtMrrLO1wiVjnYGdTWlcCKfCl16Hd7-PRKHJCb4KCdtab6ZEp8pt1BSargmT-FQ1-dxr_IMOI7o3aIUKIaimXgdWkHyvE_SQAcHuNQBVdN1fnha946ccCWaNuh4JR8I0DZBd3wIwirxAgmT5oi1fe2RBGeW-8fYjXf6ZkLKQpqs4y0]--></g></svg>