<svg xmlns="http://www.w3.org/2000/svg" xmlns:xlink="http://www.w3.org/1999/xlink" contentStyleType="text/css" height="301px" preserveAspectRatio="none" style="width:905px;height:301px;background:#FFFFFF;" version="1.1" viewBox="0 0 905 301" width="905px" zoomAndPan="magnify"><defs/><g><!--class Singleton--><g id="elem_Singleton"><rect codeLine="1" fill="#F1F1F1" height="145.7813" id="Singleton" rx="2.5" ry="2.5" style="stroke:#181818;stroke-width:0.5;" width="256.2344" x="478.14" y="148.3"/><ellipse cx="569.0238" cy="164.3" fill="#ADD1B2" rx="11" ry="11" style="stroke:#181818;stroke-width:1.0;"/><path d="M571.9925,169.9406 Q571.4144,170.2375 570.7738,170.3781 Q570.1332,170.5344 569.43,170.5344 Q566.93,170.5344 565.6019,168.8937 Q564.2894,167.2375 564.2894,164.1125 Q564.2894,160.9875 565.6019,159.3312 Q566.93,157.675 569.43,157.675 Q570.1332,157.675 570.7738,157.8312 Q571.43,157.9875 571.9925,158.2844 L571.9925,161.0031 Q571.3675,160.425 570.7738,160.1594 Q570.18,159.8781 569.555,159.8781 Q568.2113,159.8781 567.5238,160.9562 Q566.8363,162.0187 566.8363,164.1125 Q566.8363,166.2062 567.5238,167.2844 Q568.2113,168.3469 569.555,168.3469 Q570.18,168.3469 570.7738,168.0812 Q571.3675,167.8 571.9925,167.2219 L571.9925,169.9406 Z " fill="#000000"/><text fill="#000000" font-family="sans-serif" font-size="14" lengthAdjust="spacing" textLength="65.9668" x="589.5238" y="169.1467">Singleton</text><line style="stroke:#181818;stroke-width:0.5;" x1="479.14" x2="733.3744" y1="180.3" y2="180.3"/><rect fill="none" height="6" style="stroke:#C82930;stroke-width:1.0;" width="6" x="486.14" y="190.9484"/><text fill="#000000" font-family="sans-serif" font-size="14" lengthAdjust="spacing" textLength="172.6143" x="498.14" y="197.2951">static Singleton instance</text><rect fill="none" height="6" style="stroke:#C82930;stroke-width:1.0;" width="6" x="486.14" y="207.2453"/><text fill="#000000" font-family="sans-serif" font-size="14" lengthAdjust="spacing" textLength="230.2344" x="498.14" y="213.592">static readonly object lockObject</text><ellipse cx="489.14" cy="226.5422" fill="none" rx="3" ry="3" style="stroke:#038048;stroke-width:1.0;"/><text fill="#000000" font-family="sans-serif" font-size="14" lengthAdjust="spacing" textLength="172.8535" x="498.14" y="229.8889">static Singleton Instance</text><line style="stroke:#181818;stroke-width:0.5;" x1="479.14" x2="733.3744" y1="237.1906" y2="237.1906"/><rect fill="#F24D5C" height="6" style="stroke:#C82930;stroke-width:1.0;" width="6" x="486.14" y="247.8391"/><text fill="#000000" font-family="sans-serif" font-size="14" lengthAdjust="spacing" textLength="76.8906" x="498.14" y="254.1857">Singleton()</text><ellipse cx="489.14" cy="267.1359" fill="#84BE84" rx="3" ry="3" style="stroke:#038048;stroke-width:1.0;"/><text fill="#000000" font-family="sans-serif" font-size="14" lengthAdjust="spacing" textLength="140.0615" x="498.14" y="270.4826">void DoSomething()</text><ellipse cx="489.14" cy="283.4328" fill="#84BE84" rx="3" ry="3" style="stroke:#038048;stroke-width:1.0;"/><text fill="#000000" font-family="sans-serif" font-size="14" lengthAdjust="spacing" textLength="176.9619" x="498.14" y="286.7795">void SomeOtherMethod()</text></g><!--class SingletonHolder--><g id="elem_SingletonHolder"><rect codeLine="12" fill="#F1F1F1" height="80.5938" id="SingletonHolder" rx="2.5" ry="2.5" style="stroke:#181818;stroke-width:0.5;" width="264.5127" x="7" y="180.89"/><ellipse cx="78.9038" cy="196.89" fill="#ADD1B2" rx="11" ry="11" style="stroke:#181818;stroke-width:1.0;"/><path d="M81.8726,202.5306 Q81.2944,202.8275 80.6538,202.9681 Q80.0132,203.1244 79.3101,203.1244 Q76.8101,203.1244 75.4819,201.4838 Q74.1694,199.8275 74.1694,196.7025 Q74.1694,193.5775 75.4819,191.9213 Q76.8101,190.265 79.3101,190.265 Q80.0132,190.265 80.6538,190.4213 Q81.3101,190.5775 81.8726,190.8744 L81.8726,193.5931 Q81.2476,193.015 80.6538,192.7494 Q80.0601,192.4681 79.4351,192.4681 Q78.0913,192.4681 77.4038,193.5463 Q76.7163,194.6088 76.7163,196.7025 Q76.7163,198.7963 77.4038,199.8744 Q78.0913,200.9369 79.4351,200.9369 Q80.0601,200.9369 80.6538,200.6713 Q81.2476,200.39 81.8726,199.8119 L81.8726,202.5306 Z " fill="#000000"/><text fill="#000000" font-family="sans-serif" font-size="14" lengthAdjust="spacing" textLength="112.2051" x="99.4038" y="201.7367">SingletonHolder</text><line style="stroke:#181818;stroke-width:0.5;" x1="8" x2="270.5127" y1="212.89" y2="212.89"/><rect fill="none" height="6" style="stroke:#C82930;stroke-width:1.0;" width="6" x="15" y="223.5384"/><text fill="#000000" font-family="sans-serif" font-size="14" lengthAdjust="spacing" textLength="238.5127" x="27" y="229.8851">static readonly Singleton instance</text><ellipse cx="18" cy="242.8353" fill="none" rx="3" ry="3" style="stroke:#038048;stroke-width:1.0;"/><text fill="#000000" font-family="sans-serif" font-size="14" lengthAdjust="spacing" textLength="172.8535" x="27" y="246.182">static Singleton Instance</text><line style="stroke:#181818;stroke-width:0.5;" x1="8" x2="270.5127" y1="253.4838" y2="253.4838"/></g><!--class Program--><g id="elem_Program"><rect codeLine="21" fill="#F1F1F1" height="64.2969" id="Program" rx="2.5" ry="2.5" style="stroke:#181818;stroke-width:0.5;" width="190.5" x="511.01" y="7"/><ellipse cx="572.1985" cy="23" fill="#ADD1B2" rx="11" ry="11" style="stroke:#181818;stroke-width:1.0;"/><path d="M575.1672,28.6406 Q574.5891,28.9375 573.9485,29.0781 Q573.3079,29.2344 572.6047,29.2344 Q570.1047,29.2344 568.7766,27.5938 Q567.4641,25.9375 567.4641,22.8125 Q567.4641,19.6875 568.7766,18.0313 Q570.1047,16.375 572.6047,16.375 Q573.3079,16.375 573.9485,16.5313 Q574.6047,16.6875 575.1672,16.9844 L575.1672,19.7031 Q574.5422,19.125 573.9485,18.8594 Q573.3547,18.5781 572.7297,18.5781 Q571.386,18.5781 570.6985,19.6563 Q570.011,20.7188 570.011,22.8125 Q570.011,24.9063 570.6985,25.9844 Q571.386,27.0469 572.7297,27.0469 Q573.3547,27.0469 573.9485,26.7813 Q574.5422,26.5 575.1672,25.9219 L575.1672,28.6406 Z " fill="#000000"/><text fill="#000000" font-family="sans-serif" font-size="14" lengthAdjust="spacing" textLength="59.623" x="592.6985" y="27.8467">Program</text><line style="stroke:#181818;stroke-width:0.5;" x1="512.01" x2="700.51" y1="39" y2="39"/><line style="stroke:#181818;stroke-width:0.5;" x1="512.01" x2="700.51" y1="47" y2="47"/><ellipse cx="522.01" cy="60.6484" fill="#84BE84" rx="3" ry="3" style="stroke:#038048;stroke-width:1.0;"/><text fill="#000000" font-family="sans-serif" font-size="14" lengthAdjust="spacing" textLength="164.5" x="531.01" y="63.9951">void Main(string[] args)</text></g><!--link Singleton to Singleton--><g id="link_Singleton_Singleton"><path codeLine="10" d="M734.81,201.96 C755.33,204.77 769.37,211.18 769.37,221.19 C769.37,231.2 761.2745,236.796 740.7545,239.606 " fill="none" id="Singleton-to-Singleton" style="stroke:#181818;stroke-width:1.0;"/><polygon fill="#181818" points="734.81,240.42,744.2695,243.162,739.7638,239.7416,743.1841,235.2359,734.81,240.42" style="stroke:#181818;stroke-width:1.0;"/><text fill="#000000" font-family="sans-serif" font-size="13" lengthAdjust="spacing" textLength="116.6636" x="775.37" y="225.7569">&#171;create&#187; instance</text></g><!--link SingletonHolder to Singleton--><g id="link_SingletonHolder_Singleton"><path codeLine="17" d="M271.61,237.96 C285.84,239.28 300.12,240.41 313.83,241.19 C367.96,244.28 381.7,244.35 435.83,241.19 C449.51,240.39 457.7973,239.802 471.9973,238.442 " fill="none" id="SingletonHolder-to-Singleton" style="stroke:#181818;stroke-width:1.0;"/><polygon fill="#181818" points="477.97,237.87,468.6296,234.7463,472.9928,238.3467,469.3923,242.7098,477.97,237.87" style="stroke:#181818;stroke-width:1.0;"/><text fill="#000000" font-family="sans-serif" font-size="13" lengthAdjust="spacing" textLength="120.3262" x="314.83" y="237.2569">Holds reference to</text></g><!--link Singleton to SingletonHolder--><g id="link_Singleton_SingletonHolder"><path codeLine="19" d="M477.78,221.19 C413.75,221.19 336.41,221.19 271.83,221.19 " fill="none" id="Singleton-SingletonHolder" style="stroke:#181818;stroke-width:1.0;stroke-dasharray:7.0,7.0;"/><text fill="#000000" font-family="sans-serif" font-size="13" lengthAdjust="spacing" textLength="170.5044" x="289.83" y="214.2569">&#171;uses&#187; Singleton.Instance</text></g><!--link Program to Singleton--><g id="link_Program_Singleton"><path codeLine="25" d="M606.26,71.51 C606.26,92.67 606.26,115.48 606.26,142.11 " fill="none" id="Program-to-Singleton" style="stroke:#181818;stroke-width:1.0;"/><polygon fill="#181818" points="606.26,148.11,610.26,139.11,606.26,143.11,602.26,139.11,606.26,148.11" style="stroke:#181818;stroke-width:1.0;"/><text fill="#000000" font-family="sans-serif" font-size="13" lengthAdjust="spacing" textLength="29.1104" x="607.26" y="114.3669">calls</text></g><!--SRC=[VP31Zi8m34Jl_GeVMQ7o0IlK4mSu890uhlQGJKm9X5YA3GWX_dtTgfHGjDjJvR4dyyO6mmmR7-k0GX5k1UXN0eiHRpF1Hnr5YwzwGkCeXYlGpnwjG21xMBM_tLvlCFfe9-DtvqNkF8OpUGSpsj0HPQTB_M4hDEELx30jLIMduhqedbvbMMNEdp2TMeqeM5LFWCA-CiyfE4n3yfxiZmh-0yaZTUwbeqiSX6iareUsc53FG2X7cRmbR71EZ5nbDfF506kTg4xcsE5qhIsDZoEMf5TVts1IpMrlZzrXQzQ4mBy0]--></g></svg>