<svg xmlns="http://www.w3.org/2000/svg" xmlns:xlink="http://www.w3.org/1999/xlink" contentStyleType="text/css" height="343px" preserveAspectRatio="none" style="width:746px;height:343px;background:#FFFFFF;" version="1.1" viewBox="0 0 746 343" width="746px" zoomAndPan="magnify"><defs/><g><!--class Product--><g id="elem_Product"><rect codeLine="1" fill="#F1F1F1" height="64.2969" id="Product" rx="2.5" ry="2.5" style="stroke:#181818;stroke-width:0.5;" width="147.3857" x="109.64" y="147.6"/><ellipse cx="152.3941" cy="163.6" fill="#B4A7E5" rx="11" ry="11" style="stroke:#181818;stroke-width:1.0;"/><path d="M148.316,159.3656 L148.316,157.2094 L155.7066,157.2094 L155.7066,159.3656 L153.2379,159.3656 L153.2379,167.4438 L155.7066,167.4438 L155.7066,169.6 L148.316,169.6 L148.316,167.4438 L150.7847,167.4438 L150.7847,159.3656 L148.316,159.3656 Z " fill="#000000"/><text fill="#000000" font-family="sans-serif" font-size="14" font-style="italic" lengthAdjust="spacing" textLength="53.71" x="172.5617" y="168.4467">Product</text><line style="stroke:#181818;stroke-width:0.5;" x1="110.64" x2="256.0257" y1="179.6" y2="179.6"/><line style="stroke:#181818;stroke-width:0.5;" x1="110.64" x2="256.0257" y1="187.6" y2="187.6"/><ellipse cx="120.64" cy="201.2484" fill="#84BE84" rx="3" ry="3" style="stroke:#038048;stroke-width:1.0;"/><text fill="#000000" font-family="sans-serif" font-size="14" lengthAdjust="spacing" textLength="121.3857" x="129.64" y="204.5951">operation() : void</text></g><!--class ConcreteProductA--><g id="elem_ConcreteProductA"><rect codeLine="5" fill="#F1F1F1" height="64.2969" id="ConcreteProductA" rx="2.5" ry="2.5" style="stroke:#181818;stroke-width:0.5;" width="158.6699" x="7" y="271.89"/><ellipse cx="22" cy="287.89" fill="#ADD1B2" rx="11" ry="11" style="stroke:#181818;stroke-width:1.0;"/><path d="M24.9688,293.5306 Q24.3906,293.8275 23.75,293.9681 Q23.1094,294.1244 22.4063,294.1244 Q19.9063,294.1244 18.5781,292.4838 Q17.2656,290.8275 17.2656,287.7025 Q17.2656,284.5775 18.5781,282.9213 Q19.9063,281.265 22.4063,281.265 Q23.1094,281.265 23.75,281.4213 Q24.4063,281.5775 24.9688,281.8744 L24.9688,284.5931 Q24.3438,284.015 23.75,283.7494 Q23.1563,283.4681 22.5313,283.4681 Q21.1875,283.4681 20.5,284.5463 Q19.8125,285.6088 19.8125,287.7025 Q19.8125,289.7963 20.5,290.8744 Q21.1875,291.9369 22.5313,291.9369 Q23.1563,291.9369 23.75,291.6713 Q24.3438,291.39 24.9688,290.8119 L24.9688,293.5306 Z " fill="#000000"/><text fill="#000000" font-family="sans-serif" font-size="14" lengthAdjust="spacing" textLength="126.6699" x="36" y="292.7367">ConcreteProductA</text><line style="stroke:#181818;stroke-width:0.5;" x1="8" x2="164.6699" y1="303.89" y2="303.89"/><line style="stroke:#181818;stroke-width:0.5;" x1="8" x2="164.6699" y1="311.89" y2="311.89"/><ellipse cx="18" cy="325.5384" fill="#84BE84" rx="3" ry="3" style="stroke:#038048;stroke-width:1.0;"/><text fill="#000000" font-family="sans-serif" font-size="14" lengthAdjust="spacing" textLength="121.3857" x="27" y="328.8851">operation() : void</text></g><!--class ConcreteProductB--><g id="elem_ConcreteProductB"><rect codeLine="9" fill="#F1F1F1" height="64.2969" id="ConcreteProductB" rx="2.5" ry="2.5" style="stroke:#181818;stroke-width:0.5;" width="158.6973" x="200.99" y="271.89"/><ellipse cx="215.99" cy="287.89" fill="#ADD1B2" rx="11" ry="11" style="stroke:#181818;stroke-width:1.0;"/><path d="M218.9588,293.5306 Q218.3806,293.8275 217.74,293.9681 Q217.0994,294.1244 216.3963,294.1244 Q213.8963,294.1244 212.5681,292.4838 Q211.2556,290.8275 211.2556,287.7025 Q211.2556,284.5775 212.5681,282.9213 Q213.8963,281.265 216.3963,281.265 Q217.0994,281.265 217.74,281.4213 Q218.3963,281.5775 218.9588,281.8744 L218.9588,284.5931 Q218.3338,284.015 217.74,283.7494 Q217.1463,283.4681 216.5213,283.4681 Q215.1775,283.4681 214.49,284.5463 Q213.8025,285.6088 213.8025,287.7025 Q213.8025,289.7963 214.49,290.8744 Q215.1775,291.9369 216.5213,291.9369 Q217.1463,291.9369 217.74,291.6713 Q218.3338,291.39 218.9588,290.8119 L218.9588,293.5306 Z " fill="#000000"/><text fill="#000000" font-family="sans-serif" font-size="14" lengthAdjust="spacing" textLength="126.6973" x="229.99" y="292.7367">ConcreteProductB</text><line style="stroke:#181818;stroke-width:0.5;" x1="201.99" x2="358.6873" y1="303.89" y2="303.89"/><line style="stroke:#181818;stroke-width:0.5;" x1="201.99" x2="358.6873" y1="311.89" y2="311.89"/><ellipse cx="211.99" cy="325.5384" fill="#84BE84" rx="3" ry="3" style="stroke:#038048;stroke-width:1.0;"/><text fill="#000000" font-family="sans-serif" font-size="14" lengthAdjust="spacing" textLength="121.3857" x="220.99" y="328.8851">operation() : void</text></g><!--class Creator--><g id="elem_Creator"><rect codeLine="13" fill="#F1F1F1" height="80.5938" id="Creator" rx="2.5" ry="2.5" style="stroke:#181818;stroke-width:0.5;" width="206.0586" x="292.31" y="7"/><ellipse cx="364.8222" cy="23" fill="#A9DCDF" rx="11" ry="11" style="stroke:#181818;stroke-width:1.0;"/><path d="M364.9316,18.3438 L363.7753,23.4219 L366.1035,23.4219 L364.9316,18.3438 Z M363.4472,16.1094 L366.4316,16.1094 L369.791,28.5 L367.3378,28.5 L366.5722,25.4375 L363.291,25.4375 L362.541,28.5 L360.1035,28.5 L363.4472,16.1094 Z " fill="#000000"/><text fill="#000000" font-family="sans-serif" font-size="14" font-style="italic" lengthAdjust="spacing" textLength="52.5342" x="385.3222" y="27.8467">Creator</text><line style="stroke:#181818;stroke-width:0.5;" x1="293.31" x2="497.3686" y1="39" y2="39"/><line style="stroke:#181818;stroke-width:0.5;" x1="293.31" x2="497.3686" y1="47" y2="47"/><ellipse cx="303.31" cy="60.6484" fill="#84BE84" rx="3" ry="3" style="stroke:#038048;stroke-width:1.0;"/><text fill="#000000" font-family="sans-serif" font-size="14" lengthAdjust="spacing" textLength="180.0586" x="312.31" y="63.9951">factoryMethod() : Product</text><ellipse cx="303.31" cy="76.9453" fill="#84BE84" rx="3" ry="3" style="stroke:#038048;stroke-width:1.0;"/><text fill="#000000" font-family="sans-serif" font-size="14" lengthAdjust="spacing" textLength="141.292" x="312.31" y="80.292">anOperation() : void</text></g><!--class ConcreteCreatorA--><g id="elem_ConcreteCreatorA"><rect codeLine="18" fill="#F1F1F1" height="64.2969" id="ConcreteCreatorA" rx="2.5" ry="2.5" style="stroke:#181818;stroke-width:0.5;" width="206.0586" x="292.31" y="147.6"/><ellipse cx="329.164" cy="163.6" fill="#ADD1B2" rx="11" ry="11" style="stroke:#181818;stroke-width:1.0;"/><path d="M332.1328,169.2406 Q331.5546,169.5375 330.914,169.6781 Q330.2734,169.8344 329.5703,169.8344 Q327.0703,169.8344 325.7421,168.1938 Q324.4296,166.5375 324.4296,163.4125 Q324.4296,160.2875 325.7421,158.6313 Q327.0703,156.975 329.5703,156.975 Q330.2734,156.975 330.914,157.1313 Q331.5703,157.2875 332.1328,157.5844 L332.1328,160.3031 Q331.5078,159.725 330.914,159.4594 Q330.3203,159.1781 329.6953,159.1781 Q328.3515,159.1781 327.664,160.2563 Q326.9765,161.3188 326.9765,163.4125 Q326.9765,165.5063 327.664,166.5844 Q328.3515,167.6469 329.6953,167.6469 Q330.3203,167.6469 330.914,167.3813 Q331.5078,167.1 332.1328,166.5219 L332.1328,169.2406 Z " fill="#000000"/><text fill="#000000" font-family="sans-serif" font-size="14" lengthAdjust="spacing" textLength="125.4941" x="348.0204" y="168.4467">ConcreteCreatorA</text><line style="stroke:#181818;stroke-width:0.5;" x1="293.31" x2="497.3686" y1="179.6" y2="179.6"/><line style="stroke:#181818;stroke-width:0.5;" x1="293.31" x2="497.3686" y1="187.6" y2="187.6"/><ellipse cx="303.31" cy="201.2484" fill="#84BE84" rx="3" ry="3" style="stroke:#038048;stroke-width:1.0;"/><text fill="#000000" font-family="sans-serif" font-size="14" lengthAdjust="spacing" textLength="180.0586" x="312.31" y="204.5951">factoryMethod() : Product</text></g><!--class ConcreteCreatorB--><g id="elem_ConcreteCreatorB"><rect codeLine="22" fill="#F1F1F1" height="64.2969" id="ConcreteCreatorB" rx="2.5" ry="2.5" style="stroke:#181818;stroke-width:0.5;" width="206.0586" x="533.31" y="147.6"/><ellipse cx="570.1517" cy="163.6" fill="#ADD1B2" rx="11" ry="11" style="stroke:#181818;stroke-width:1.0;"/><path d="M573.1204,169.2406 Q572.5423,169.5375 571.9017,169.6781 Q571.2611,169.8344 570.5579,169.8344 Q568.0579,169.8344 566.7298,168.1938 Q565.4173,166.5375 565.4173,163.4125 Q565.4173,160.2875 566.7298,158.6313 Q568.0579,156.975 570.5579,156.975 Q571.2611,156.975 571.9017,157.1313 Q572.5579,157.2875 573.1204,157.5844 L573.1204,160.3031 Q572.4954,159.725 571.9017,159.4594 Q571.3079,159.1781 570.6829,159.1781 Q569.3392,159.1781 568.6517,160.2563 Q567.9642,161.3188 567.9642,163.4125 Q567.9642,165.5063 568.6517,166.5844 Q569.3392,167.6469 570.6829,167.6469 Q571.3079,167.6469 571.9017,167.3813 Q572.4954,167.1 573.1204,166.5219 L573.1204,169.2406 Z " fill="#000000"/><text fill="#000000" font-family="sans-serif" font-size="14" lengthAdjust="spacing" textLength="125.5215" x="589.0054" y="168.4467">ConcreteCreatorB</text><line style="stroke:#181818;stroke-width:0.5;" x1="534.31" x2="738.3686" y1="179.6" y2="179.6"/><line style="stroke:#181818;stroke-width:0.5;" x1="534.31" x2="738.3686" y1="187.6" y2="187.6"/><ellipse cx="544.31" cy="201.2484" fill="#84BE84" rx="3" ry="3" style="stroke:#038048;stroke-width:1.0;"/><text fill="#000000" font-family="sans-serif" font-size="14" lengthAdjust="spacing" textLength="180.0586" x="553.31" y="204.5951">factoryMethod() : Product</text></g><!--reverse link Product to ConcreteProductA--><g id="link_Product_ConcreteProductA"><path d="M135.0124,225.6317 C118.6124,243.8917 112.47,253.41 99.93,271.65 " fill="none" id="Product-backto-ConcreteProductA" style="stroke:#181818;stroke-width:1.0;stroke-dasharray:7.0,7.0;"/><polygon fill="none" points="147.04,212.24,130.5485,221.6225,139.4763,229.6409,147.04,212.24" style="stroke:#181818;stroke-width:1.0;"/></g><!--reverse link Product to ConcreteProductA--><g id="link_Product_ConcreteProductA"><path codeLine="29" d="M160.1899,227.1121 C147.7399,245.3721 139.71,253.41 123.19,271.65 " fill="none" id="Product-backto-ConcreteProductA-1" style="stroke:#181818;stroke-width:1.0;"/><polygon fill="none" points="170.33,212.24,155.2326,223.7321,165.1473,230.4921,170.33,212.24" style="stroke:#181818;stroke-width:1.0;"/></g><!--reverse link Product to ConcreteProductB--><g id="link_Product_ConcreteProductB"><path d="M207.201,227.0704 C219.761,245.3304 227.74,253.41 244.14,271.65 " fill="none" id="Product-backto-ConcreteProductB" style="stroke:#181818;stroke-width:1.0;stroke-dasharray:7.0,7.0;"/><polygon fill="none" points="197,212.24,202.2575,230.4707,212.1444,223.6701,197,212.24" style="stroke:#181818;stroke-width:1.0;"/></g><!--reverse link Product to ConcreteProductB--><g id="link_Product_ConcreteProductB"><path codeLine="30" d="M232.3661,225.588 C248.8861,243.848 254.98,253.41 267.4,271.65 " fill="none" id="Product-backto-ConcreteProductB-1" style="stroke:#181818;stroke-width:1.0;"/><polygon fill="none" points="220.29,212.24,227.9167,229.6133,236.8154,221.5626,220.29,212.24" style="stroke:#181818;stroke-width:1.0;"/></g><!--reverse link Creator to ConcreteCreatorA--><g id="link_Creator_ConcreteCreatorA"><path d="M382.1532,105.7388 C380.7132,124.7888 382.31,129.37 384.24,147.24 " fill="none" id="Creator-backto-ConcreteCreatorA" style="stroke:#181818;stroke-width:1.0;"/><polygon fill="none" points="383.51,87.79,376.1703,105.2865,388.1362,106.191,383.51,87.79" style="stroke:#181818;stroke-width:1.0;"/></g><!--reverse link Creator to ConcreteCreatorA--><g id="link_Creator_ConcreteCreatorA"><path codeLine="27" d="M409.291,105.7322 C410.821,124.7822 409.12,129.37 407.08,147.24 " fill="none" id="Creator-backto-ConcreteCreatorA-1" style="stroke:#181818;stroke-width:1.0;"/><polygon fill="none" points="407.85,87.79,403.3103,106.2126,415.2718,105.2519,407.85,87.79" style="stroke:#181818;stroke-width:1.0;"/></g><!--reverse link Creator to ConcreteCreatorB--><g id="link_Creator_ConcreteCreatorB"><path d="M472.4675,96.814 C506.0775,115.774 532,129.32 566.79,147.12 " fill="none" id="Creator-backto-ConcreteCreatorB" style="stroke:#181818;stroke-width:1.0;"/><polygon fill="none" points="456.79,87.97,469.5195,102.0398,475.4155,91.5881,456.79,87.97" style="stroke:#181818;stroke-width:1.0;"/></g><!--reverse link Creator to ConcreteCreatorB--><g id="link_Creator_ConcreteCreatorB"><path codeLine="28" d="M497.1372,96.2603 C533.6772,115.2203 558.81,129.32 589.66,147.12 " fill="none" id="Creator-backto-ConcreteCreatorB-1" style="stroke:#181818;stroke-width:1.0;"/><polygon fill="none" points="481.16,87.97,494.3738,101.586,499.9006,90.9346,481.16,87.97" style="stroke:#181818;stroke-width:1.0;"/></g><!--link Creator to Product--><g id="link_Creator_Product"><path codeLine="26" d="M330.86,87.97 C300.04,106.93 278.9891,119.8851 250.0691,137.6851 " fill="none" id="Creator-to-Product" style="stroke:#181818;stroke-width:1.0;"/><polygon fill="none" points="234.74,147.12,253.2141,142.7948,246.9241,132.5754,234.74,147.12" style="stroke:#181818;stroke-width:1.0;"/></g><!--SRC=[fP7T2W8X44RlVOgvBC8NY0ZMhgDUmNGYOTTPTFgZxTsJq8M8bhQyapFVSMPqdZ7ijK7O1h97mt0JaCuCgCMWsP6VJ64E9t9Mt8KmjOuHLkHDGCQSgS0rROqDUex_UDHuZzv53ZgLPM50pHJwK9eiNQzhv0FPPp1hCzT-yqLxsLe1NXYz7VFC9vVwpLMAfQMpbzsoPmKiEYdV-XwaIfHDlz3ojODKFG00]--></g></svg>